<?xml version="1.0" standalone="no"?><!DOCTYPE svg PUBLIC "-//W3C//DTD SVG 1.1//EN" "http://www.w3.org/Graphics/SVG/1.1/DTD/svg11.dtd"><svg t="1618047683628" class="icon" viewBox="0 0 1024 1024" version="1.1" xmlns="http://www.w3.org/2000/svg" p-id="2048" xmlns:xlink="http://www.w3.org/1999/xlink" width="200" height="200"><defs><style type="text/css"></style></defs><path d="M928.426667 894.293333H102.4l27.306667-136.533333c6.826667-40.96 34.133333-71.68 71.68-88.746667l150.186666-61.44 6.826667 10.24c44.373333 47.786667 98.986667 71.68 153.6 71.68s112.64-27.306667 153.6-71.68l6.826667-10.24 150.186666 61.44c37.546667 13.653333 64.853333 47.786667 71.68 88.746667l34.133334 136.533333z m-785.066667-34.133333H887.466667l-20.48-95.573333c-6.826667-27.306667-23.893333-51.2-51.2-61.44L686.08 648.533333c-47.786667 47.786667-109.226667 75.093333-170.666667 75.093334s-122.88-27.306667-170.666666-75.093334l-129.706667 54.613334c-27.306667 10.24-44.373333 34.133333-51.2 61.44l-20.48 95.573333zM430.08 382.293333h34.133333v34.133334h-34.133333zM566.613333 382.293333h34.133334v34.133334h-34.133334z" fill="#2D3545" p-id="2049"></path><path d="M515.413333 655.36c-85.333333 0-160.426667-68.266667-191.146666-170.666667-27.306667 0-47.786667-37.546667-47.786667-85.333333 0-37.546667 13.653333-68.266667 34.133333-81.92v-3.413333c0-13.653333 0-27.306667 3.413334-44.373334l34.133333 6.826667c-3.413333 13.653333-3.413333 23.893333-3.413333 37.546667v10.24l3.413333 23.893333-20.48-3.413333c-3.413333 3.413333-17.066667 20.48-17.066667 51.2 0 34.133333 13.653333 51.2 17.066667 51.2l20.48-13.653334 6.826667 20.48c23.893333 95.573333 88.746667 160.426667 160.426666 160.426667s136.533333-64.853333 160.426667-160.426667l6.826667-23.893333 20.48 13.653333c6.826667 0 17.066667-17.066667 17.066666-51.2 0-30.72-10.24-47.786667-17.066666-51.2l-20.48 10.24 3.413333-23.893333v-10.24c0-10.24 0-23.893333-3.413333-37.546667l34.133333-6.826666c3.413333 13.653333 3.413333 27.306667 3.413333 44.373333v6.826667c20.48 10.24 34.133333 40.96 34.133334 78.506666 0 47.786667-20.48 81.92-47.786667 85.333334-30.72 98.986667-105.813333 167.253333-191.146667 167.253333z" fill="#2D3545" p-id="2050"></path><path d="M515.413333 348.16c-116.053333 0-180.906667-34.133333-197.973333-64.853333l27.306667-17.066667c13.653333 20.48 68.266667 47.786667 170.666666 47.786667s157.013333-30.72 170.666667-47.786667l27.306667 17.066667c-17.066667 30.72-81.92 64.853333-197.973334 64.853333z" fill="#2D3545" p-id="2051"></path><path d="M703.146667 279.893333h-375.466667c-27.306667 0-51.2-23.893333-51.2-51.2V177.493333h17.066667c17.066667 0 47.786667-20.48 78.506666-40.96 44.373333-30.72 92.16-61.44 143.36-61.44s102.4 34.133333 143.36 61.44c30.72 20.48 58.026667 40.96 78.506667 40.96h17.066667v51.2c0 27.306667-23.893333 51.2-51.2 51.2z m-392.533334-68.266666v20.48c0 10.24 6.826667 17.066667 17.066667 17.066666h375.466667c10.24 0 17.066667-6.826667 17.066666-17.066666v-20.48c-23.893333-6.826667-51.2-23.893333-78.506666-44.373334-40.96-27.306667-85.333333-58.026667-126.293334-58.026666s-85.333333 30.72-126.293333 58.026666c-27.306667 20.48-54.613333 37.546667-78.506667 44.373334z" fill="#2D3545" p-id="2052"></path><path d="M515.413333 211.626667c-20.48 0-34.133333-13.653333-34.133333-34.133334v-34.133333h68.266667v34.133333c0 20.48-13.653333 34.133333-34.133334 34.133334zM703.146667 832.853333l-51.2-51.2v-58.026666h102.4v58.026666l-51.2 51.2z m-17.066667-64.853333l17.066667 17.066667 17.066666-17.066667v-10.24h-34.133333v10.24zM447.146667 706.56h34.133333v170.666667h-34.133333zM549.546667 706.56h34.133333v170.666667h-34.133333z" fill="#2D3545" p-id="2053"></path></svg>